<?xml version="1.0" standalone="no"?><!DOCTYPE svg PUBLIC "-//W3C//DTD SVG 1.1//EN" "http://www.w3.org/Graphics/SVG/1.1/DTD/svg11.dtd"><svg width="250" height="250" viewBox="0 0 100 100" class="css-1j8o68f" version="1.1" xmlns:xlink="http://www.w3.org/1999/xlink" style="block-size:250px;height:250px;inline-size:250px;perspective-origin:125px 125px;touch-action:none;transform-origin:125px 125px;width:250px;" xmlns="http://www.w3.org/2000/svg"><defs id="SvgjsDefs2465" style="block-size:auto;height:auto;inline-size:auto;overflow-x:visible;overflow-y:visible;perspective-origin:0px 0px;transform-origin:0px 0px;width:auto;"/><g id="SvgjsG2466" featurekey="uHI19F-0" transform="matrix(0.14245014245014245,0,0,0.14245014245014245,0.14245014245014245,0.14245014245014245)" fill="#234531" style="block-size:auto;fill:rgb(35, 69, 49);height:auto;inline-size:auto;overflow-x:visible;overflow-y:visible;perspective-origin:0px 0px;touch-action:none;transform:matrix(0.14245, 0, 0, 0.14245, 0.14245, 0.14245);transform-origin:0px 0px;user-select:none;width:auto;"><g xmlns="http://www.w3.org/2000/svg" style="block-size:auto;fill:rgb(35, 69, 49);height:auto;inline-size:auto;overflow-x:visible;overflow-y:visible;perspective-origin:0px 0px;touch-action:none;transform-origin:0px 0px;user-select:none;width:auto;"><title style="block-size:auto;fill:rgb(35, 69, 49);height:auto;inline-size:auto;overflow-x:visible;overflow-y:visible;perspective-origin:50% 50%;transform-origin:0px 0px;user-select:none;width:auto;">background</title><rect x="-1" y="-1" width="702" height="702" style="block-size:702px;fill:none;height:702px;inline-size:702px;overflow-x:visible;overflow-y:visible;perspective-origin:0px 0px;transform-origin:0px 0px;user-select:none;width:702px;x:-1px;y:-1px;"/></g><g xmlns="http://www.w3.org/2000/svg" style="block-size:auto;fill:rgb(35, 69, 49);height:auto;inline-size:auto;overflow-x:visible;overflow-y:visible;perspective-origin:0px 0px;touch-action:none;transform-origin:0px 0px;user-select:none;width:auto;"><title style="block-size:auto;fill:rgb(35, 69, 49);height:auto;inline-size:auto;overflow-x:visible;overflow-y:visible;perspective-origin:50% 50%;transform-origin:0px 0px;user-select:none;width:auto;">Layer 1</title><g style="block-size:auto;fill:rgb(35, 69, 49);height:auto;inline-size:auto;overflow-x:visible;overflow-y:visible;perspective-origin:0px 0px;touch-action:none;transform-origin:0px 0px;user-select:none;width:auto;"><g style="block-size:auto;fill:rgb(35, 69, 49);height:auto;inline-size:auto;overflow-x:visible;overflow-y:visible;perspective-origin:0px 0px;touch-action:none;transform-origin:0px 0px;user-select:none;width:auto;"><path d="M222,158.3c-31,0.7-57.5,21-79.5,60.8c-23.1,44.8-34.5,94.6-34.3,149.4c0.4,6.6,1.1,7.2,2.2,1.9     c9.3-40.3,19-71.8,29.1-94.6c9.9-22.9,20.9-41.7,32.9-56.2c27.6-32.1,51.5-37.3,71.8-15.6c22.2,25.6,34,68.8,35.4,129.4     c-1.2,81.5-11.9,143.1-32.1,185c-25.3,51-51.3,68-77.7,50.8c-36-28.7-56-92.3-60-190.6c-1.4-3.4-2.7-0.9-3.7,7.5     c-1.9,10.2-3.2,21.4-4,33.3c-3,53.4,4.1,98.7,21.2,135.9c17.5,35.3,40.8,53.2,69.9,53.8c31.4-0.5,60-21,85.9-61.7     c25.8-42.5,42.4-94.3,49.7-155.6c2.7-65.2-6.1-120.7-26.3-166.5c-20.4-43.6-47.1-66-80-67.2" style="block-size:auto;d:path(&quot;M 222 158.3 C 191 159 164.5 179.3 142.5 219.1 C 119.4 263.9 108 313.7 108.2 368.5 C 108.6 375.1 109.3 375.7 110.4 370.4 C 119.7 330.1 129.4 298.6 139.5 275.8 C 149.4 252.9 160.4 234.1 172.4 219.6 C 200 187.5 223.9 182.3 244.2 204 C 266.4 229.6 278.2 272.8 279.6 333.4 C 278.4 414.9 267.7 476.5 247.5 518.4 C 222.2 569.4 196.2 586.4 169.8 569.2 C 133.8 540.5 113.8 476.9 109.8 378.6 C 108.4 375.2 107.1 377.7 106.1 386.1 C 104.2 396.3 102.9 407.5 102.1 419.4 C 99.1 472.8 106.2 518.1 123.3 555.3 C 140.8 590.6 164.1 608.5 193.2 609.1 C 224.6 608.6 253.2 588.1 279.1 547.4 C 304.9 504.9 321.5 453.1 328.8 391.8 C 331.5 326.6 322.7 271.1 302.5 225.3 C 282.1 181.7 255.4 159.3 222.5 158.1&quot;);fill:rgb(35, 69, 49);height:auto;inline-size:auto;overflow-x:visible;overflow-y:visible;perspective-origin:0px 0px;transform-origin:0px 0px;user-select:none;width:auto;"/></g><g style="block-size:auto;fill:rgb(35, 69, 49);height:auto;inline-size:auto;overflow-x:visible;overflow-y:visible;perspective-origin:0px 0px;touch-action:none;transform-origin:0px 0px;user-select:none;width:auto;"><path d="M452,134.1c-16.1-26.4-46.9-39.3-92.4-38.5c-50.3,2.4-99.2,17.4-146.6,45c-5.5,3.6-5.7,4.6-0.6,2.9     c39.6-12.1,71.7-19.5,96.4-22.1c24.8-2.9,46.5-2.8,65.1,0.4c41.6,7.9,58.1,26,49.4,54.4c-11.1,32-42.6,63.8-94.4,95.4     c-71.2,39.7-129.9,61.3-176.2,64.7c-56.9,3.6-84.5-10.4-82.8-41.9C77,248.8,122,199.7,205.1,147c2.2-2.9-0.6-2.7-8.3,0.6     c-9.8,3.5-20.1,7.9-30.9,13.2c-47.7,24.1-83.5,52.9-107.1,86.3c-21.8,32.8-25.7,62-11.7,87.4c16.1,26.9,48.2,41.4,96.4,43.5     c49.7,1.1,102.9-10.4,159.6-34.8c57.8-30.3,101.5-65.6,131-106c27.6-39.5,33.6-73.8,18.2-102.9" style="block-size:auto;d:path(&quot;M 452 134.1 C 435.9 107.7 405.1 94.8 359.6 95.6 C 309.3 98 260.4 113 213 140.6 C 207.5 144.2 207.3 145.2 212.4 143.5 C 252 131.4 284.1 124 308.8 121.4 C 333.6 118.5 355.3 118.6 373.9 121.8 C 415.5 129.7 432 147.8 423.3 176.2 C 412.2 208.2 380.7 240 328.9 271.6 C 257.7 311.3 199 332.9 152.7 336.3 C 95.8 339.9 68.2 325.9 69.9 294.4 C 77 248.8 122 199.7 205.1 147 C 207.3 144.1 204.5 144.3 196.8 147.6 C 187 151.1 176.7 155.5 165.9 160.8 C 118.2 184.9 82.4 213.7 58.8 247.1 C 37 279.9 33.1 309.1 47.1 334.5 C 63.2 361.4 95.3 375.9 143.5 378 C 193.2 379.1 246.4 367.6 303.1 343.2 C 360.9 312.9 404.6 277.6 434.1 237.2 C 461.7 197.7 467.7 163.4 452.3 134.3&quot;);fill:rgb(35, 69, 49);height:auto;inline-size:auto;overflow-x:visible;overflow-y:visible;perspective-origin:0px 0px;transform-origin:0px 0px;user-select:none;width:auto;"/></g><g style="block-size:auto;fill:rgb(35, 69, 49);height:auto;inline-size:auto;overflow-x:visible;overflow-y:visible;perspective-origin:0px 0px;touch-action:none;transform-origin:0px 0px;user-select:none;width:auto;"><path d="M588,321.2c14.8-27.2,10.6-60.3-12.9-99.3c-27.3-42.4-64.7-77.2-112.3-104.4c-5.9-3-6.8-2.7-2.8,0.9     c30.3,28.2,52.7,52.4,67.4,72.4c14.9,20.1,25.7,38.9,32.2,56.6c14,40,6.5,63.3-22.4,69.9c-33.3,6.4-76.5-5-129.8-34     c-69.9-41.8-118-81.9-144.2-120.2c-31.5-47.5-33.2-78.4-5.1-92.7c42.9-16.8,107.9-2.3,195.1,43.4c3.6,0.4,2.1-1.9-4.7-6.9     c-7.9-6.8-16.9-13.5-26.9-20.2c-44.7-29.3-87.5-45.8-128.3-49.6c-39.3-2.5-66.5,8.7-81.6,33.6c-15.3,27.4-11.8,62.5,10.5,105.2     c23.9,43.6,60.5,83.9,109.9,120.8c55.1,34.9,107.6,55.1,157.3,60.4c48,4.1,80.8-7.8,98.2-35.7" style="block-size:auto;d:path(&quot;M 588 321.2 C 602.8 294 598.6 260.9 575.1 221.9 C 547.8 179.5 510.4 144.7 462.8 117.5 C 456.9 114.5 456 114.8 460 118.4 C 490.3 146.6 512.7 170.8 527.4 190.8 C 542.3 210.9 553.1 229.7 559.6 247.4 C 573.6 287.4 566.1 310.7 537.2 317.3 C 503.9 323.7 460.7 312.3 407.4 283.3 C 337.5 241.5 289.4 201.4 263.2 163.1 C 231.7 115.6 230 84.7 258.1 70.4 C 301 53.6 366 68.1 453.2 113.8 C 456.8 114.2 455.3 111.9 448.5 106.9 C 440.6 100.1 431.6 93.4 421.6 86.7 C 376.9 57.4 334.1 40.9 293.3 37.1 C 254 34.6 226.8 45.8 211.7 70.7 C 196.4 98.1 199.9 133.2 222.2 175.9 C 246.1 219.5 282.7 259.8 332.1 296.7 C 387.2 331.6 439.7 351.8 489.4 357.1 C 537.4 361.2 570.2 349.3 587.6 321.4&quot;);fill:rgb(35, 69, 49);height:auto;inline-size:auto;overflow-x:visible;overflow-y:visible;perspective-origin:0px 0px;transform-origin:0px 0px;user-select:none;width:auto;"/></g><g style="block-size:auto;fill:rgb(35, 69, 49);height:auto;inline-size:auto;overflow-x:visible;overflow-y:visible;perspective-origin:0px 0px;touch-action:none;transform-origin:0px 0px;user-select:none;width:auto;"><path d="M494,532.5c31-0.7,57.5-21,79.5-60.8c23.1-44.8,34.5-94.6,34.3-149.4c-0.4-6.6-1.1-7.2-2.2-1.9     c-9.3,40.3-19,71.8-29.1,94.6c-9.9,22.9-20.9,41.7-32.9,56.2c-27.6,32.1-51.5,37.3-71.8,15.6c-22.2-25.6-34-68.8-35.4-129.4     c1.2-81.5,11.9-143.1,32.1-185c25.3-51,51.3-68,77.7-50.8c36,28.7,56,92.3,60,190.6c1.4,3.4,2.7,0.9,3.7-7.5     c1.9-10.2,3.2-21.4,4-33.3c3-53.4-4.1-98.7-21.2-135.9c-17.5-35.3-40.8-53.2-69.9-53.8c-31.4,0.5-60,21-85.9,61.7     c-25.8,42.5-42.4,94.3-49.7,155.6c-2.7,65.2,6.1,120.7,26.3,166.5c20.4,43.6,47.1,66,80,67.2" style="block-size:auto;d:path(&quot;M 494 532.5 C 525 531.8 551.5 511.5 573.5 471.7 C 596.6 426.9 608 377.1 607.8 322.3 C 607.4 315.7 606.7 315.1 605.6 320.4 C 596.3 360.7 586.6 392.2 576.5 415 C 566.6 437.9 555.6 456.7 543.6 471.2 C 516 503.3 492.1 508.5 471.8 486.8 C 449.6 461.2 437.8 418 436.4 357.4 C 437.6 275.9 448.3 214.3 468.5 172.4 C 493.8 121.4 519.8 104.4 546.2 121.6 C 582.2 150.3 602.2 213.9 606.2 312.2 C 607.6 315.6 608.9 313.1 609.9 304.7 C 611.8 294.5 613.1 283.3 613.9 271.4 C 616.9 218 609.8 172.7 592.7 135.5 C 575.2 100.2 551.9 82.3001 522.8 81.7001 C 491.4 82.2001 462.8 102.7 436.9 143.4 C 411.1 185.9 394.5 237.7 387.2 299 C 384.5 364.2 393.3 419.7 413.5 465.5 C 433.9 509.1 460.6 531.5 493.5 532.7&quot;);fill:rgb(35, 69, 49);height:auto;inline-size:auto;overflow-x:visible;overflow-y:visible;perspective-origin:0px 0px;transform-origin:0px 0px;user-select:none;width:auto;"/></g><g style="block-size:auto;fill:rgb(35, 69, 49);height:auto;inline-size:auto;overflow-x:visible;overflow-y:visible;perspective-origin:0px 0px;touch-action:none;transform-origin:0px 0px;user-select:none;width:auto;"><path d="M128,369.6c-14.8,27.2-10.6,60.3,12.9,99.3c27.3,42.4,64.7,77.2,112.3,104.4c5.9,3,6.8,2.7,2.8-0.9     c-30.3-28.2-52.7-52.4-67.4-72.4c-14.9-20.1-25.7-38.9-32.2-56.6c-14-40-6.5-63.3,22.4-69.9c33.3-6.4,76.5,5,129.8,34     c69.9,41.8,118,81.9,144.2,120.2c31.5,47.5,33.2,78.4,5.1,92.7c-42.9,16.8-107.9,2.3-195.1-43.4c-3.6-0.4-2.1,1.9,4.7,6.9     c7.9,6.8,16.9,13.5,26.9,20.2c44.7,29.3,87.5,45.8,128.3,49.6c39.3,2.5,66.5-8.7,81.6-33.6c15.3-27.4,11.8-62.5-10.5-105.2     c-23.9-43.6-60.5-83.9-109.9-120.8c-55.1-34.9-107.6-55.1-157.3-60.4c-48-4.1-80.8,7.8-98.2,35.7" style="block-size:auto;d:path(&quot;M 128 369.6 C 113.2 396.8 117.4 429.9 140.9 468.9 C 168.2 511.3 205.6 546.1 253.2 573.3 C 259.1 576.3 260 576 256 572.4 C 225.7 544.2 203.3 520 188.6 500 C 173.7 479.9 162.9 461.1 156.4 443.4 C 142.4 403.4 149.9 380.1 178.8 373.5 C 212.1 367.1 255.3 378.5 308.6 407.5 C 378.5 449.3 426.6 489.4 452.8 527.7 C 484.3 575.2 486 606.1 457.9 620.4 C 415 637.2 350 622.7 262.8 577 C 259.2 576.6 260.7 578.9 267.5 583.9 C 275.4 590.7 284.4 597.4 294.4 604.1 C 339.1 633.4 381.9 649.9 422.7 653.7 C 462 656.2 489.2 645 504.3 620.1 C 519.6 592.7 516.1 557.6 493.8 514.9 C 469.9 471.3 433.3 431 383.9 394.1 C 328.8 359.2 276.3 339 226.6 333.7 C 178.6 329.6 145.8 341.5 128.4 369.4&quot;);fill:rgb(35, 69, 49);height:auto;inline-size:auto;overflow-x:visible;overflow-y:visible;perspective-origin:0px 0px;transform-origin:0px 0px;user-select:none;width:auto;"/></g><g style="block-size:auto;fill:rgb(35, 69, 49);height:auto;inline-size:auto;overflow-x:visible;overflow-y:visible;perspective-origin:0px 0px;touch-action:none;transform-origin:0px 0px;user-select:none;width:auto;"><path d="M264,556.7c16.1,26.4,46.9,39.3,92.4,38.5c50.3-2.4,99.2-17.4,146.6-45c5.5-3.6,5.7-4.6,0.6-2.9     c-39.6,12.1-71.7,19.5-96.4,22.1c-24.8,2.9-46.5,2.8-65.1-0.4c-41.6-7.9-58.1-26-49.4-54.4c11.1-32,42.6-63.8,94.4-95.4     c71.2-39.7,129.9-61.3,176.2-64.7c56.9-3.6,84.5,10.4,82.8,41.9c-6.9,45.5-51.9,94.6-135.1,147.3c-2.2,2.9,0.6,2.7,8.3-0.6     c9.8-3.5,20.1-7.9,30.9-13.2c47.7-24.1,83.5-52.9,107.1-86.3c21.8-32.8,25.7-62,11.7-87.4c-16.1-26.9-48.2-41.4-96.3-43.5     c-49.7-1.1-102.9,10.4-159.6,34.8c-57.8,30.3-101.5,65.6-131,106c-27.6,39.5-33.6,73.8-18.2,102.9" style="block-size:auto;d:path(&quot;M 264 556.7 C 280.1 583.1 310.9 596 356.4 595.2 C 406.7 592.8 455.6 577.8 503 550.2 C 508.5 546.6 508.7 545.6 503.6 547.3 C 464 559.4 431.9 566.8 407.2 569.4 C 382.4 572.3 360.7 572.2 342.1 569 C 300.5 561.1 284 543 292.7 514.6 C 303.8 482.6 335.3 450.8 387.1 419.2 C 458.3 379.5 517 357.9 563.3 354.5 C 620.2 350.9 647.8 364.9 646.1 396.4 C 639.2 441.9 594.2 491 511 543.7 C 508.8 546.6 511.6 546.4 519.3 543.1 C 529.1 539.6 539.4 535.2 550.2 529.9 C 597.9 505.8 633.7 477 657.3 443.6 C 679.1 410.8 683 381.6 669 356.2 C 652.9 329.3 620.8 314.8 572.7 312.7 C 523 311.6 469.8 323.1 413.1 347.5 C 355.3 377.8 311.6 413.1 282.1 453.5 C 254.5 493 248.5 527.3 263.9 556.4&quot;);fill:rgb(35, 69, 49);height:auto;inline-size:auto;overflow-x:visible;overflow-y:visible;perspective-origin:0px 0px;transform-origin:0px 0px;user-select:none;width:auto;"/></g></g></g></g></svg>